<svg width="123" height="25" viewBox="0 0 123 25" fill="none" xmlns="http://www.w3.org/2000/svg">
<path d="M16.1 10.36C16.548 10.36 16.9867 10.3133 17.416 10.22C17.8453 10.108 18.228 9.94 18.564 9.716C18.9187 9.492 19.1987 9.20267 19.404 8.848C19.6093 8.47467 19.712 8.036 19.712 7.532C19.712 7.00933 19.6093 6.57067 19.404 6.216C19.2173 5.84267 18.956 5.544 18.62 5.32C18.284 5.07733 17.9013 4.90933 17.472 4.816C17.0427 4.704 16.5947 4.648 16.128 4.648H4.144V10.36H16.1ZM16.128 6.216C16.3333 6.216 16.5573 6.23467 16.8 6.272C17.0427 6.30933 17.2667 6.384 17.472 6.496C17.6773 6.58933 17.8453 6.72 17.976 6.888C18.1067 7.056 18.172 7.27067 18.172 7.532C18.172 7.79333 18.0973 8.008 17.948 8.176C17.8173 8.32533 17.64 8.456 17.416 8.568C17.2107 8.66133 16.9867 8.72667 16.744 8.764C16.5013 8.80133 16.2867 8.82 16.1 8.82H5.712V6.216H16.128ZM17.612 17.752C18.06 17.752 18.508 17.7053 18.956 17.612C19.404 17.5 19.796 17.332 20.132 17.108C20.4867 16.8653 20.7667 16.5667 20.972 16.212C21.196 15.8387 21.308 15.3907 21.308 14.868C21.308 14.4013 21.2147 13.9907 21.028 13.636C20.8413 13.2813 20.5893 12.992 20.272 12.768C19.9547 12.5253 19.5907 12.348 19.18 12.236C18.788 12.1053 18.3773 12.04 17.948 12.04H4.144V17.752H17.612ZM17.948 13.58C18.1347 13.58 18.3307 13.608 18.536 13.664C18.76 13.7013 18.956 13.776 19.124 13.888C19.3107 13.9813 19.46 14.112 19.572 14.28C19.684 14.448 19.74 14.644 19.74 14.868C19.74 15.148 19.6653 15.372 19.516 15.54C19.3853 15.708 19.208 15.8387 18.984 15.932C18.7787 16.0253 18.5453 16.0907 18.284 16.128C18.0413 16.1653 17.8173 16.184 17.612 16.184H5.712V13.58H17.948ZM16.128 2.94C16.8933 2.94 17.6027 3.024 18.256 3.192C18.9093 3.36 19.4693 3.63067 19.936 4.004C20.4213 4.37733 20.7947 4.85333 21.056 5.432C21.336 6.01067 21.4853 6.71067 21.504 7.532C21.504 7.98 21.4013 8.40933 21.196 8.82C21.0093 9.212 20.776 9.55733 20.496 9.856C20.216 10.1547 19.9173 10.3973 19.6 10.584C19.2827 10.752 19.012 10.8453 18.788 10.864C19.292 10.9013 19.796 11.032 20.3 11.256C20.804 11.4613 21.252 11.7413 21.644 12.096C22.0547 12.4507 22.3907 12.8613 22.652 13.328C22.9133 13.7947 23.044 14.308 23.044 14.868C23.044 15.708 22.904 16.4267 22.624 17.024C22.344 17.6027 21.952 18.0787 21.448 18.452C20.9627 18.8067 20.384 19.068 19.712 19.236C19.0587 19.3853 18.3587 19.46 17.612 19.46H2.464V2.94H16.128ZM17.612 21.028C18.62 21.028 19.5533 20.916 20.412 20.692C21.2707 20.4493 22.008 20.0853 22.624 19.6C23.24 19.096 23.7253 18.4613 24.08 17.696C24.4347 16.912 24.612 15.9693 24.612 14.868C24.612 13.9347 24.3507 13.104 23.828 12.376C23.324 11.648 22.5587 11.0693 21.532 10.64C21.756 10.4533 21.9613 10.2387 22.148 9.996C22.3347 9.73467 22.4933 9.464 22.624 9.184C22.7547 8.904 22.8573 8.624 22.932 8.344C23.0067 8.04533 23.044 7.77467 23.044 7.532C23.044 6.468 22.876 5.55333 22.54 4.788C22.204 4.004 21.728 3.36 21.112 2.856C20.5147 2.352 19.7867 1.97867 18.928 1.736C18.088 1.49333 17.1547 1.372 16.128 1.372H0.896V21.028H17.612ZM0.196 0.672H16.128C17.808 0.672 19.3293 0.951999 20.692 1.512C22.0547 2.072 23.324 3.052 24.5 4.452C24.892 4.91867 25.2467 5.49733 25.564 6.188C25.8813 6.86 26.1053 7.56933 26.236 8.316C26.3667 9.044 26.3667 9.76267 26.236 10.472C26.124 11.1813 25.8253 11.788 25.34 12.292C25.8253 12.4787 26.236 12.796 26.572 13.244C26.908 13.6733 27.1787 14.1493 27.384 14.672C27.608 15.1947 27.7667 15.7267 27.86 16.268C27.972 16.8093 28.028 17.276 28.028 17.668C28.028 18.8813 27.832 19.9173 27.44 20.776C27.0667 21.616 26.544 22.3067 25.872 22.848C25.2 23.408 24.3973 23.8093 23.464 24.052C22.5307 24.3133 21.5133 24.444 20.412 24.444H3.08L0.196 21.728V0.672ZM43.2112 17.752C44.2939 17.752 45.3019 17.64 46.2352 17.416C47.1872 17.1733 48.0086 16.8 48.6992 16.296C49.4086 15.7733 49.9592 15.1013 50.3512 14.28C50.7432 13.44 50.9392 12.4133 50.9392 11.2V2.94H52.7312V11.2C52.7312 12.8987 52.4512 14.2893 51.8912 15.372C51.3312 16.436 50.5752 17.276 49.6232 17.892C48.6712 18.4893 47.5512 18.9 46.2632 19.124C44.9939 19.348 43.6499 19.46 42.2312 19.46C41.4099 19.46 40.5792 19.4227 39.7392 19.348C38.9179 19.2733 38.1246 19.124 37.3592 18.9C36.5939 18.676 35.8659 18.3493 35.1752 17.92C34.5032 17.472 33.9059 16.884 33.3832 16.156L35.2312 15.036C35.7352 15.652 36.2952 16.1373 36.9112 16.492C37.5272 16.8467 38.1806 17.1173 38.8712 17.304C39.5619 17.4907 40.2712 17.612 40.9992 17.668C41.7272 17.724 42.4646 17.752 43.2112 17.752ZM42.2312 16.184C40.8872 16.184 39.6459 15.9413 38.5072 15.456C37.3872 14.952 36.4352 14.14 35.6512 13.02L31.2552 15.652C31.9459 16.884 32.7206 17.8547 33.5792 18.564C34.4379 19.2733 35.3712 19.8147 36.3792 20.188C37.3872 20.5427 38.4606 20.776 39.5992 20.888C40.7379 20.9813 41.9419 21.028 43.2112 21.028C44.8352 21.028 46.3192 20.8507 47.6632 20.496C49.0072 20.1227 50.1646 19.544 51.1352 18.76C52.1246 17.976 52.8899 16.968 53.4312 15.736C53.9726 14.4853 54.2432 12.9733 54.2432 11.2V1.372H49.3992V11.2C49.3992 12.32 49.1939 13.2067 48.7832 13.86C48.3726 14.5133 47.8312 15.0173 47.1592 15.372C46.4872 15.708 45.7219 15.932 44.8632 16.044C44.0046 16.1373 43.1272 16.184 42.2312 16.184ZM42.2312 15.484C43.0339 15.484 43.8179 15.4373 44.5832 15.344C45.3672 15.2507 46.0579 15.064 46.6552 14.784C47.2712 14.4853 47.7659 14.056 48.1392 13.496C48.5126 12.9173 48.6992 12.152 48.6992 11.2V0.672H54.9432L57.6592 3.556V14C57.6592 15.8853 57.3699 17.4907 56.7912 18.816C56.2312 20.1413 55.4286 21.2147 54.3832 22.036C53.3566 22.876 52.1246 23.4827 50.6872 23.856C49.2686 24.248 47.7099 24.444 46.0112 24.444C44.9659 24.444 43.9486 24.4067 42.9592 24.332C41.9886 24.276 41.0459 24.136 40.1312 23.912C39.2352 23.688 38.3672 23.3613 37.5272 22.932C36.7059 22.5213 35.9312 21.952 35.2032 21.224C34.4192 20.5147 33.7659 19.8893 33.2432 19.348C32.7392 18.8067 32.3099 18.312 31.9552 17.864C31.6006 17.416 31.3019 16.996 31.0592 16.604C30.7979 16.212 30.5459 15.8013 30.3032 15.372L35.8192 12.096C35.9499 12.3013 36.0992 12.5067 36.2672 12.712C36.4166 12.8987 36.5846 13.104 36.7712 13.328C36.9766 13.552 37.2099 13.7667 37.4712 13.972C38.1432 14.4947 38.8899 14.8773 39.7112 15.12C40.5512 15.3627 41.3912 15.484 42.2312 15.484ZM66.6201 15.624C67.2174 16.2027 67.8801 16.6413 68.6081 16.94C69.3361 17.2387 70.0921 17.4533 70.8761 17.584C71.6601 17.696 72.4628 17.7613 73.2841 17.78C74.1054 17.78 74.8988 17.78 75.6641 17.78C75.9441 17.78 76.3174 17.7707 76.7841 17.752C77.2694 17.7333 77.7828 17.696 78.3241 17.64C78.8841 17.5653 79.4441 17.472 80.0041 17.36C80.5641 17.2293 81.0681 17.0613 81.5161 16.856C81.9828 16.6507 82.3561 16.408 82.6361 16.128C82.9348 15.8293 83.0841 15.4747 83.0841 15.064C83.0841 14.6533 82.9254 14.2987 82.6081 14C82.3094 13.6827 81.9174 13.412 81.4321 13.188C80.9468 12.964 80.3961 12.7773 79.7801 12.628C79.1828 12.46 78.5854 12.3387 77.9881 12.264C77.3908 12.1707 76.8308 12.1053 76.3081 12.068C75.8041 12.0307 75.3934 12.012 75.0761 12.012H75.1041C74.6561 11.9933 74.1054 11.9467 73.4521 11.872C72.7988 11.7973 72.1174 11.6853 71.4081 11.536C70.6988 11.3867 69.9894 11.2 69.2801 10.976C68.5708 10.7333 67.9361 10.444 67.3761 10.108C66.8161 9.772 66.3588 9.38 66.0041 8.932C65.6494 8.46533 65.4721 7.93333 65.4721 7.336C65.4721 6.68267 65.6401 6.12267 65.9761 5.656C66.3308 5.18933 66.7788 4.79733 67.3201 4.48C67.8801 4.144 68.5054 3.88267 69.1961 3.696C69.8868 3.49067 70.5868 3.332 71.2961 3.22C72.0054 3.108 72.6774 3.03333 73.3121 2.996C73.9654 2.95867 74.5161 2.94 74.9641 2.94C75.6921 2.94 76.4294 2.97733 77.1761 3.052C77.9414 3.108 78.6881 3.22 79.4161 3.388C80.1441 3.556 80.8534 3.78933 81.5441 4.088C82.2348 4.368 82.8694 4.732 83.4481 5.18L81.9641 6.244C81.4228 5.87067 80.8534 5.58133 80.2561 5.376C79.6588 5.152 79.0428 4.984 78.4081 4.872C77.7734 4.76 77.1294 4.69467 76.4761 4.676C75.8228 4.63867 75.1881 4.62 74.5721 4.62C74.1428 4.62 73.5548 4.648 72.8081 4.704C72.0801 4.76 71.3521 4.88133 70.6241 5.068C69.9148 5.236 69.2988 5.50667 68.7761 5.88C68.2534 6.23467 67.9921 6.72 67.9921 7.336C67.9921 7.93333 68.2441 8.41867 68.7481 8.792C69.2521 9.14667 69.9148 9.436 70.7361 9.66C71.5574 9.86533 72.4908 10.0333 73.5361 10.164C74.6001 10.276 75.6828 10.3973 76.7841 10.528C77.8854 10.6587 78.9588 10.8173 80.0041 11.004C81.0681 11.172 82.0108 11.424 82.8321 11.76C83.6534 12.0773 84.3161 12.5067 84.8201 13.048C85.3241 13.5707 85.5761 14.2427 85.5761 15.064C85.5761 15.6427 85.3988 16.156 85.0441 16.604C84.7081 17.052 84.2601 17.444 83.7001 17.78C83.1401 18.0973 82.5054 18.368 81.7961 18.592C81.1054 18.7973 80.4054 18.9653 79.6961 19.096C79.0054 19.2267 78.3428 19.32 77.7081 19.376C77.0734 19.432 76.5508 19.46 76.1401 19.46H74.0401C73.2748 19.46 72.4721 19.432 71.6321 19.376C70.7921 19.32 69.9708 19.1987 69.1681 19.012C68.3654 18.8067 67.6001 18.5267 66.8721 18.172C66.1441 17.8173 65.5001 17.332 64.9401 16.716L66.6201 15.624ZM62.6161 16.128C63.3628 17.3413 64.2494 18.284 65.2761 18.956C66.3028 19.6093 67.4134 20.0947 68.6081 20.412C69.8028 20.7107 71.0348 20.888 72.3041 20.944C73.5921 21 74.8708 21.028 76.1401 21.028C76.7001 21.028 77.3628 20.9907 78.1281 20.916C78.8934 20.8227 79.6868 20.6827 80.5081 20.496C81.3294 20.3093 82.1321 20.0667 82.9161 19.768C83.7188 19.4507 84.4281 19.0773 85.0441 18.648C85.6788 18.2 86.1828 17.6867 86.5561 17.108C86.9481 16.5107 87.1441 15.8293 87.1441 15.064C87.1441 14.1493 86.9388 13.3747 86.5281 12.74C86.1361 12.0867 85.6134 11.5453 84.9601 11.116C84.3254 10.668 83.5881 10.3133 82.7481 10.052C81.9268 9.772 81.0774 9.55733 80.2001 9.408C79.3228 9.25867 78.4641 9.14667 77.6241 9.072C76.7841 8.99733 76.0374 8.932 75.3841 8.876C75.1601 8.85733 74.7308 8.82 74.0961 8.764C73.4614 8.68933 72.8081 8.596 72.1361 8.484C71.4641 8.35333 70.8668 8.19467 70.3441 8.008C69.8214 7.82133 69.5601 7.59733 69.5601 7.336C69.5601 7.03733 69.8028 6.81333 70.2881 6.664C70.7734 6.51467 71.3241 6.40267 71.9401 6.328C72.5748 6.25333 73.1814 6.216 73.7601 6.216C74.3574 6.19733 74.7588 6.188 74.9641 6.188C75.5614 6.188 76.1681 6.216 76.7841 6.272C77.4001 6.30933 77.9974 6.40267 78.5761 6.552C79.1734 6.70133 79.7334 6.916 80.2561 7.196C80.7974 7.476 81.2921 7.84 81.7401 8.288L85.8281 5.544C85.1188 4.57333 84.3161 3.81733 83.4201 3.276C82.5241 2.716 81.5721 2.296 80.5641 2.016C79.5561 1.736 78.5014 1.55867 77.4001 1.484C76.3174 1.40933 75.2254 1.372 74.1241 1.372C73.5454 1.372 72.8828 1.41867 72.1361 1.512C71.4081 1.58667 70.6614 1.71733 69.8961 1.904C69.1494 2.09067 68.4121 2.33333 67.6841 2.632C66.9748 2.93067 66.3401 3.304 65.7801 3.752C65.2201 4.2 64.7721 4.72267 64.4361 5.32C64.1001 5.89867 63.9321 6.57067 63.9321 7.336C63.9321 8.21333 64.1468 8.96933 64.5761 9.604C65.0054 10.2387 65.5748 10.78 66.2841 11.228C66.9934 11.676 67.7961 12.04 68.6921 12.32C69.5881 12.6 70.4934 12.8333 71.4081 13.02C72.3414 13.188 73.2374 13.328 74.0961 13.44C74.9734 13.5333 75.7388 13.6173 76.3921 13.692C76.5788 13.7107 76.9428 13.748 77.4841 13.804C78.0441 13.86 78.6228 13.944 79.2201 14.056C79.8174 14.1493 80.3494 14.28 80.8161 14.448C81.2828 14.616 81.5161 14.8213 81.5161 15.064C81.5161 15.2693 81.3668 15.4467 81.0681 15.596C80.7694 15.7267 80.3868 15.8387 79.9201 15.932C79.4534 16.0067 78.9401 16.0627 78.3801 16.1C77.8201 16.1373 77.2694 16.1653 76.7281 16.184C76.2054 16.2027 75.7294 16.212 75.3001 16.212C74.8894 16.212 74.6001 16.212 74.4321 16.212C73.7228 16.212 73.0228 16.184 72.3321 16.128C71.6414 16.0533 70.9694 15.9227 70.3161 15.736C69.6628 15.5307 69.0468 15.2507 68.4681 14.896C67.8894 14.5413 67.3668 14.0653 66.9001 13.468L62.6161 16.128ZM66.6761 12.768L65.3321 11.396C64.6788 10.9107 64.1654 10.3413 63.7921 9.688C63.4188 9.016 63.2321 8.232 63.2321 7.336C63.2321 6.47733 63.4094 5.72133 63.7641 5.068C64.1374 4.396 64.6228 3.81733 65.2201 3.332C65.8174 2.84667 66.4988 2.436 67.2641 2.1C68.0294 1.74533 68.8134 1.46533 69.6161 1.26C70.4188 1.05467 71.2121 0.905333 71.9961 0.812C72.7801 0.718666 73.4894 0.672 74.1241 0.672C75.2254 0.672 76.3361 0.709333 77.4561 0.783998C78.5761 0.839999 79.6681 1.008 80.7321 1.288C81.8148 1.568 82.8508 1.99733 83.8401 2.576C84.8294 3.15467 85.7534 3.96667 86.6121 5.012C87.1908 5.59067 87.6481 6.076 87.9841 6.468C88.3201 6.84133 88.5814 7.15867 88.7681 7.42C88.9734 7.68133 89.1228 7.896 89.2161 8.064C89.3094 8.21333 89.4028 8.35333 89.4961 8.484L85.9121 10.892C86.0054 10.9853 86.1081 11.0693 86.2201 11.144C86.3508 11.2 86.5281 11.3213 86.7521 11.508C86.9761 11.6947 87.2654 11.9653 87.6201 12.32C87.9934 12.656 88.4881 13.1413 89.1041 13.776C89.5521 14.2427 89.9068 14.84 90.1681 15.568C90.4294 16.296 90.5601 17.0613 90.5601 17.864C90.5601 18.704 90.3548 19.4507 89.9441 20.104C89.5334 20.7573 89.0014 21.3267 88.3481 21.812C87.6948 22.2973 86.9481 22.708 86.1081 23.044C85.2681 23.38 84.4188 23.6507 83.5601 23.856C82.7014 24.0613 81.8614 24.2107 81.0401 24.304C80.2374 24.3973 79.5374 24.444 78.9401 24.444C77.8388 24.444 76.7188 24.444 75.5801 24.444C74.4414 24.444 73.3214 24.3507 72.2201 24.164C71.1374 23.9773 70.0828 23.6693 69.0561 23.24C68.0294 22.8107 67.0868 22.1573 66.2281 21.28C65.5001 20.608 64.8841 20.02 64.3801 19.516C63.8948 18.9933 63.4748 18.5267 63.1201 18.116C62.7841 17.6867 62.4948 17.2947 62.2521 16.94C62.0281 16.5853 61.8134 16.24 61.6081 15.904L66.6761 12.768ZM104.408 4.648C103.307 4.648 102.28 4.76933 101.328 5.012C100.395 5.236 99.5825 5.60933 98.8918 6.132C98.2012 6.636 97.6505 7.308 97.2398 8.148C96.8478 8.988 96.6518 10.0053 96.6518 11.2C96.6518 12.4133 96.8478 13.44 97.2398 14.28C97.6505 15.1013 98.2012 15.7733 98.8918 16.296C99.5825 16.8187 100.395 17.192 101.328 17.416C102.28 17.64 103.307 17.752 104.408 17.752H107.46C108.767 17.752 110.036 17.556 111.268 17.164C112.519 16.7533 113.592 16.044 114.488 15.036L116.28 16.156C115.757 16.884 115.16 17.472 114.488 17.92C113.816 18.3493 113.097 18.676 112.332 18.9C111.567 19.124 110.764 19.2733 109.924 19.348C109.103 19.4227 108.281 19.46 107.46 19.46H104.408C103.045 19.46 101.776 19.32 100.6 19.04C99.4425 18.7413 98.4345 18.2653 97.5758 17.612C96.7358 16.94 96.0732 16.0813 95.5878 15.036C95.1212 13.9907 94.8878 12.712 94.8878 11.2C94.8878 9.688 95.1212 8.40933 95.5878 7.364C96.0732 6.31867 96.7358 5.46933 97.5758 4.816C98.4345 4.144 99.4425 3.668 100.6 3.388C101.776 3.08933 103.045 2.94 104.408 2.94H107.46C108.281 2.94 109.103 2.97733 109.924 3.052C110.764 3.12667 111.567 3.276 112.332 3.5C113.097 3.724 113.816 4.06 114.488 4.508C115.16 4.93733 115.757 5.516 116.28 6.244L114.488 7.364C113.592 6.356 112.519 5.656 111.268 5.264C110.036 4.85333 108.767 4.648 107.46 4.648H104.408ZM107.46 6.216C108.804 6.216 110.036 6.468 111.156 6.972C112.276 7.45733 113.228 8.26 114.012 9.38L118.464 6.748C117.829 5.66533 117.12 4.77867 116.336 4.088C115.552 3.37867 114.693 2.828 113.76 2.436C112.845 2.02533 111.856 1.74533 110.792 1.596C109.747 1.44667 108.636 1.372 107.46 1.372H104.408C102.784 1.372 101.291 1.55867 99.9278 1.932C98.5838 2.28667 97.4172 2.856 96.4278 3.64C95.4572 4.424 94.6918 5.44133 94.1318 6.692C93.5905 7.924 93.3198 9.42667 93.3198 11.2C93.3198 12.9733 93.5905 14.4853 94.1318 15.736C94.6918 16.968 95.4572 17.976 96.4278 18.76C97.4172 19.544 98.5838 20.1227 99.9278 20.496C101.291 20.8507 102.784 21.028 104.408 21.028H107.46C108.636 21.028 109.747 20.9533 110.792 20.804C111.856 20.6547 112.845 20.384 113.76 19.992C114.693 19.5813 115.552 19.0307 116.336 18.34C117.12 17.6493 117.829 16.7533 118.464 15.652L114.012 13.02C113.228 14.14 112.276 14.952 111.156 15.456C110.036 15.9413 108.804 16.184 107.46 16.184H104.408C103.568 16.184 102.775 16.1 102.028 15.932C101.281 15.764 100.628 15.4933 100.068 15.12C99.5078 14.728 99.0598 14.2147 98.7238 13.58C98.3878 12.9453 98.2198 12.152 98.2198 11.2C98.2198 10.2667 98.3878 9.48267 98.7238 8.848C99.0598 8.21333 99.5078 7.7 100.068 7.308C100.647 6.916 101.309 6.636 102.056 6.468C102.803 6.3 103.587 6.216 104.408 6.216H107.46ZM97.5198 21.392C96.4558 20.4587 95.6065 19.5907 94.9718 18.788C94.3372 17.9667 93.8425 17.164 93.4878 16.38C93.1332 15.5773 92.8998 14.756 92.7878 13.916C92.6758 13.076 92.6198 12.1707 92.6198 11.2C92.6198 9.296 92.9092 7.68133 93.4878 6.356C94.0665 5.012 94.8785 3.92 95.9238 3.08C96.9692 2.24 98.2105 1.63333 99.6478 1.26C101.104 0.867999 102.691 0.672 104.408 0.672H107.46C108.524 0.672 109.541 0.718666 110.512 0.812C111.501 0.886666 112.481 1.11067 113.452 1.484C114.423 1.85733 115.412 2.41733 116.42 3.164C117.428 3.91067 118.511 4.94667 119.668 6.272C119.855 6.47733 120.06 6.72 120.284 7C120.508 7.28 120.723 7.57867 120.928 7.896C121.133 8.21333 121.339 8.54 121.544 8.876C121.749 9.19333 121.936 9.492 122.104 9.772L116.644 12.992L114.516 10.864C113.863 10.4347 113.181 10.1267 112.472 9.94C111.763 9.73467 111.025 9.632 110.26 9.632H107.208C106.461 9.632 105.752 9.70667 105.08 9.856C104.408 10.0053 103.811 10.248 103.288 10.584C102.784 10.92 102.383 11.368 102.084 11.928C101.785 12.488 101.636 13.1787 101.636 14C101.636 14.448 101.673 14.8213 101.748 15.12C102.14 15.2507 102.56 15.344 103.008 15.4C103.456 15.456 103.923 15.484 104.408 15.484H107.46C108.692 15.484 109.849 15.2227 110.932 14.7C112.033 14.1773 113.004 13.3093 113.844 12.096L119.444 15.4L122.104 18.228C121.357 19.4973 120.545 20.5333 119.668 21.336C118.809 22.1387 117.885 22.764 116.896 23.212C115.907 23.6787 114.861 23.996 113.76 24.164C112.659 24.3507 111.492 24.444 110.26 24.444H107.208C106.256 24.444 105.313 24.3787 104.38 24.248C103.465 24.136 102.579 23.9493 101.72 23.688C100.88 23.4453 100.096 23.128 99.3678 22.736C98.6585 22.3627 98.0425 21.9147 97.5198 21.392Z" fill="#0D0C41"/>
</svg>
